<?xml version="1.0" encoding="UTF-8" standalone="no"?>
<svg
   xmlns:dc="http://purl.org/dc/elements/1.1/"
   xmlns:cc="http://creativecommons.org/ns#"
   xmlns:rdf="http://www.w3.org/1999/02/22-rdf-syntax-ns#"
   xmlns:svg="http://www.w3.org/2000/svg"
   xmlns="http://www.w3.org/2000/svg"
   xmlns:sodipodi="http://sodipodi.sourceforge.net/DTD/sodipodi-0.dtd"
   xmlns:inkscape="http://www.inkscape.org/namespaces/inkscape"
   width="210mm"
   height="297mm"
   viewBox="0 0 210 297"
   version="1.1"
   id="svg8"
   inkscape:version="1.0.2-2 (e86c870879, 2021-01-15)"
   sodipodi:docname="selfie.svg">
  <defs
     id="defs2" />
  <sodipodi:namedview
     id="base"
     pagecolor="#ffffff"
     bordercolor="#666666"
     borderopacity="1.0"
     inkscape:pageopacity="0.0"
     inkscape:pageshadow="2"
     inkscape:zoom="0.98994949"
     inkscape:cx="739.53562"
     inkscape:cy="515.3588"
     inkscape:document-units="mm"
     inkscape:current-layer="g606"
     inkscape:document-rotation="0"
     showgrid="false"
     inkscape:window-width="1755"
     inkscape:window-height="1020"
     inkscape:window-x="143"
     inkscape:window-y="0"
     inkscape:window-maximized="0" />
  <metadata
     id="metadata5">
    <rdf:RDF>
      <cc:Work
         rdf:about="">
        <dc:format>image/svg+xml</dc:format>
        <dc:type
           rdf:resource="http://purl.org/dc/dcmitype/StillImage" />
        <dc:title></dc:title>
      </cc:Work>
    </rdf:RDF>
  </metadata>
  <g
     inkscape:label="Layer 1"
     inkscape:groupmode="layer"
     id="layer1">
    <g
       style="fill:none"
       id="g606"
       transform="matrix(0.26458333,0,0,0.26458333,34.736445,56.309002)">
      <path
         d="m 110.222,142.318 c -2.65,-1.442 -3.874,-0.235 -4.83,-1.442 -0.956,-1.208 2.65,-4.344 -4.595,-7.497 0,0 -0.487,-6.709 -10.3819,-6.994 -9.8951,-0.285 -7.262,6.709 -9.9118,8.386 -2.6499,1.677 -3.3543,-0.973 -6.0377,0.721 -2.6834,1.694 -1.4591,5.031 -3.6226,5.551 -2.1635,0.52 -5.0314,-2.163 -7.7316,-0.469 -2.7001,1.694 -2.6666,3.136 -3.8741,3.136 -1.2076,0 -3.6226,-0.973 -5.0314,0 -1.4088,0.973 -3.1363,2.18 -3.1363,2.18 h 61.1314 c 0.151,-0.733 0.035,-1.497 -0.328,-2.152 -0.363,-0.655 -0.949,-1.159 -1.651,-1.42 z"
         fill="#ffffff"
         id="path254" />
      <path
         d="m 394.613,61.2623 c -7.011,-3.8238 -10.197,-0.6373 -12.746,-3.8238 -2.55,-3.1866 7.01,-11.4716 -12.109,-19.7566 0,0 -1.275,-17.8447 -27.405,-18.4484 -26.129,-0.6038 -19.119,17.8446 -26.129,22.3058 -7.011,4.4612 -8.923,-2.5492 -15.933,1.9119 -7.01,4.4612 -3.824,13.4171 -9.56,14.6581 -5.735,1.2411 -13.417,-5.7357 -20.393,-1.2746 -6.977,4.4612 -7.011,8.285 -10.197,8.285 -3.187,0 -9.56,-2.5492 -13.417,0 -3.858,2.5493 -8.285,5.7358 -8.285,5.7358 h 161.239 c 0,0 1.945,-5.7693 -5.065,-9.5932 z"
         fill="#ffffff"
         id="path256" />
      <path
         d="M 185.643,434.239 H 332.324"
         stroke="#263238"
         stroke-linecap="round"
         stroke-linejoin="round"
         id="path332" />
      <path
         d="m 116.193,260.556 h 4.494 v 17.945 h 6.726 v 114.447"
         stroke="#263238"
         stroke-linecap="round"
         stroke-linejoin="round"
         id="path334" />
      <path
         d="m 113.207,238.267 v -46.524 h 51.606 v 86.758"
         stroke="#263238"
         stroke-linecap="round"
         stroke-linejoin="round"
         id="path336" />
      <path
         d="M 128.905,288.228 H 184.25 V 394.441"
         stroke="#263238"
         stroke-linecap="round"
         stroke-linejoin="round"
         id="path338" />
      <path
         d="m 165.55,236.623 h 30.675 v 158.556"
         stroke="#263238"
         stroke-linecap="round"
         stroke-linejoin="round"
         id="path340" />
      <path
         d="M 196.225,236.623 V 176.045 H 232.87 V 394.441"
         stroke="#263238"
         stroke-linecap="round"
         stroke-linejoin="round"
         id="path342" />
      <path
         d="m 205.198,175.726 v -4.93 h 19.455 v 4.545"
         stroke="#263238"
         stroke-linecap="round"
         stroke-linejoin="round"
         id="path344" />
      <path
         d="m 209.441,170.511 v -6.156 h 10.063 v 6.156"
         stroke="#263238"
         stroke-linecap="round"
         stroke-linejoin="round"
         id="path346" />
      <path
         d="m 232.367,209.085 h 34.096 v 72.116 h 46.407 v 114.598"
         stroke="#263238"
         stroke-linecap="round"
         stroke-linejoin="round"
         id="path348" />
      <path
         d="m 312.316,342.131 h -68.762 v 53.115"
         stroke="#263238"
         stroke-linecap="round"
         stroke-linejoin="round"
         id="path350" />
      <path
         d="m 312.87,377.351 h 37.45 V 222.502 h 22.373 31.295"
         stroke="#263238"
         stroke-linecap="round"
         stroke-linejoin="round"
         id="path352" />
      <path
         d="m 350.89,235.919 h -48.083 v 44.712"
         stroke="#263238"
         stroke-linecap="round"
         stroke-linejoin="round"
         id="path354" />
      <path
         d="m 306.714,235.919 v -7.279 h 10.063 v -7.262 h 26.834 v 6.708 h 3.925"
         stroke="#263238"
         stroke-linecap="round"
         stroke-linejoin="round"
         id="path356" />
      <path
         d="m 340.374,164.641 c 8.52,-4.176 17.845,-12.378 22.44,-28.512 3.808,-13.282 2.214,-25.257 -4.595,-34.649 -3.428,-4.5998 -7.808,-8.4058 -12.842,-11.1583 -5.033,-2.7525 -10.601,-4.3868 -16.323,-4.7913 -0.123,-0.0092 -0.247,0.0069 -0.363,0.0473 -0.117,0.0403 -0.224,0.104 -0.315,0.1873 -0.091,0.0832 -0.164,0.1842 -0.215,0.2967 -0.051,0.1125 -0.078,0.2342 -0.08,0.3576 -0.004,0.1233 0.016,0.2464 0.059,0.362 0.043,0.1157 0.108,0.2217 0.192,0.3121 0.084,0.0903 0.185,0.1632 0.298,0.2144 0.112,0.0513 0.233,0.0799 0.357,0.0842 5.44,0.3894 10.732,1.9467 15.516,4.5659 4.784,2.6193 8.948,6.2388 12.207,10.6121 6.457,8.906 7.949,20.327 4.327,33.056 -2.003,7.658 -5.955,14.667 -11.472,20.344 3.841,-5.173 6.357,-11.207 7.329,-17.576 2.046,-11.74 -0.084,-21.401 -6.323,-28.814 -2.421,-2.827 -5.287,-5.24 -8.486,-7.144 -18.096,-17.0901 -52.964,-17.2243 -74.146,-1.074 -24.989,19.036 -30.943,42.834 -57.106,76.142 -26.163,33.308 -53.534,57.023 -95.177,57.023 -41.6432,0 -61.0812,73.156 -11.908,95.177 49.174,22.02 139.202,28.511 180.845,9.526 41.643,-18.985 64.251,-21.417 96.368,-73.794 28.008,-45.484 -6.759,-97.458 -40.587,-100.795 z m 8.772,-53.803 c 5.87,6.96 7.849,16.151 5.92,27.287 -2.281,13.031 -8.671,20.126 -14.893,24.168 5.669,-6.457 20.612,-26.516 9.862,-48.989 -0.667,-1.351 -1.412,-2.661 -2.231,-3.925 0.453,0.47 0.906,0.939 1.342,1.459 z"
         fill="#263238"
         id="path358" />
      <path
         d="m 104.905,324.488 c 3.979,1.874 8.177,3.243 12.495,4.075"
         stroke="#ffffff"
         stroke-linecap="round"
         stroke-linejoin="round"
         id="path360" />
      <path
         d="m 316.979,168.649 c 0,0 13.417,-32.536 -7.799,-46.691 -17.308,-11.539 -38.205,9.911 -44.561,27.588 -6.357,17.677 -18.449,48.822 -53.769,67.22 -35.321,18.398 -123.8227,27.589 -128.7702,66.515 -2.5325,19.857 6.7085,31.228 16.4023,37.618"
         stroke="#ffffff"
         stroke-linecap="round"
         stroke-linejoin="round"
         id="path362" />
      <path
         d="m 338.731,132.607 c 0.177,-3.362 -0.244,-6.729 -1.241,-9.945"
         stroke="#ffffff"
         stroke-linecap="round"
         stroke-linejoin="round"
         id="path364" />
      <path
         d="m 316.978,168.649 c 6.005,-6.893 15.849,-15.983 19.925,-27.287"
         stroke="#ffffff"
         stroke-linecap="round"
         stroke-linejoin="round"
         id="path366" />
      <path
         d="m 314.144,167.24 c 0,0 -5.669,-30.423 -21.937,-27.589 -16.268,2.835 -7.077,19.807 -7.077,19.807"
         stroke="#ffffff"
         stroke-linecap="round"
         stroke-linejoin="round"
         id="path368" />
      <path
         d="m 334.672,177.856 c 0,0 58.7,26.18 54.49,61.551"
         stroke="#ffffff"
         stroke-linecap="round"
         stroke-linejoin="round"
         id="path370" />
      <path
         d="m 363.854,275.046 c -2.587,3.459 -5.489,6.671 -8.67,9.593"
         stroke="#ffffff"
         stroke-linecap="round"
         stroke-linejoin="round"
         id="path372" />
      <path
         d="m 352.349,187.835 c 0,0 36.176,41.509 16.252,79.765"
         stroke="#ffffff"
         stroke-linecap="round"
         stroke-linejoin="round"
         id="path374" />
      <path
         d="m 258.296,223.558 c 0,0 -4.679,-8.067 -8.084,-0.419 -3.405,7.648 10.197,25.475 12.746,22.507 2.549,-2.969 -4.662,-22.088 -4.662,-22.088 z"
         fill="#92e3a9"
         id="path376" />
      <path
         opacity="0.5"
         d="m 258.296,223.558 c 0,0 -4.679,-8.067 -8.084,-0.419 -3.405,7.648 10.197,25.475 12.746,22.507 2.549,-2.969 -4.662,-22.088 -4.662,-22.088 z"
         fill="#ffffff"
         id="path378" />
      <path
         d="m 258.296,223.558 c 0,0 -4.679,-8.067 -8.084,-0.419 -3.405,7.648 10.197,25.475 12.746,22.507 2.549,-2.969 -4.662,-22.088 -4.662,-22.088 z"
         stroke="#263238"
         stroke-linecap="round"
         stroke-linejoin="round"
         id="path380" />
      <path
         d="m 116.209,530.859 c 0,0 4.009,-14.994 10.382,-40.067 6.373,-25.073 45.4,-181.415 68.879,-207.36 23.48,-25.946 33.124,-0.856 57.778,8.922 24.653,9.778 30.59,11.035 30.59,11.035 0,0 5.032,0.856 20.814,9.359 15.781,8.503 22.523,11.471 36.544,15.715 14.021,4.243 32.285,14.02 23.363,43.337 -8.923,29.316 -33.241,73.961 -34.918,105.407 -1.677,31.446 6.826,53.668 6.826,53.668"
         fill="#ffffff"
         id="path382" />
      <path
         d="m 210.565,303.239 c 26.834,5.735 48.536,51.085 48.536,51.085 l 39.597,-31.295 c 0.184,-0.571 0,-6.155 -0.554,-13.652 -10.616,-5.317 -14.289,-5.954 -14.289,-5.954 0,0 -5.954,-1.275 -30.591,-11.035 -24.637,-9.761 -34.481,-34.851 -57.794,-8.956 -3.907,4.327 -8.251,12.31 -12.813,22.708 8.711,-4.079 18.544,-5.101 27.908,-2.901 z"
         fill="#92e3a9"
         id="path384" />
      <path
         opacity="0.5"
         d="m 210.565,303.239 c 26.834,5.735 48.536,51.085 48.536,51.085 l 39.597,-31.295 c 0.184,-0.571 0,-6.155 -0.554,-13.652 -10.616,-5.317 -14.289,-5.954 -14.289,-5.954 0,0 -5.954,-1.275 -30.591,-11.035 -24.637,-9.761 -34.481,-34.851 -57.794,-8.956 -3.907,4.327 -8.251,12.31 -12.813,22.708 8.711,-4.079 18.544,-5.101 27.908,-2.901 z"
         fill="#ffffff"
         id="path386" />
      <path
         d="m 201.592,353.653 c 0,0 1.677,7.078 -17.677,57.442 -19.354,50.364 24.738,13.266 6.189,42.431 -18.549,29.165 -73.358,60.981 -78.658,60.981 -5.299,0 -11.488,-98.951 -7.077,-104.284 4.411,-5.334 31.094,-48.151 56.2,-64.738 25.107,-16.586 41.023,8.168 41.023,8.168 z"
         fill="#92e3a9"
         id="path388" />
      <path
         opacity="0.5"
         d="m 201.592,353.653 c 0,0 1.677,7.078 -17.677,57.442 -19.354,50.364 24.738,13.266 6.189,42.431 -18.549,29.165 -73.358,60.981 -78.658,60.981 -5.299,0 -11.488,-98.951 -7.077,-104.284 4.411,-5.334 31.094,-48.151 56.2,-64.738 25.107,-16.586 41.023,8.168 41.023,8.168 z"
         fill="#ffffff"
         id="path390" />
      <path
         d="m 342.102,379.28 c 0,0 1.761,11.488 -2.65,35.354 -4.411,23.865 -14.138,60.091 -26.515,79.546 -12.378,19.454 -17.677,16.771 -17.677,16.771 0,0 7.949,-38.004 19.438,-58.331 11.488,-20.326 25.643,-59.185 27.404,-73.34 z"
         fill="#92e3a9"
         id="path392" />
      <path
         opacity="0.5"
         d="m 342.102,379.28 c 0,0 1.761,11.488 -2.65,35.354 -4.411,23.865 -14.138,60.091 -26.515,79.546 -12.378,19.454 -17.677,16.771 -17.677,16.771 0,0 7.949,-38.004 19.438,-58.331 11.488,-20.326 25.643,-59.185 27.404,-73.34 z"
         fill="#ffffff"
         id="path394" />
      <path
         d="m 116.209,530.859 c 0,0 4.009,-14.994 10.382,-40.067 6.373,-25.073 45.4,-181.415 68.879,-207.36 23.48,-25.946 33.124,-0.856 57.778,8.922 24.653,9.778 30.59,11.035 30.59,11.035 0,0 5.032,0.856 20.814,9.359 15.781,8.503 22.523,11.471 36.544,15.715 14.021,4.243 32.285,14.02 23.363,43.337 -8.923,29.316 -33.241,73.961 -34.918,105.407 -1.677,31.446 6.826,53.668 6.826,53.668"
         stroke="#263238"
         stroke-linecap="round"
         stroke-linejoin="round"
         id="path396" />
      <path
         d="m 168.15,531.781 c 0,0 27.689,-42.683 46.809,-73.274 19.119,-30.591 25.056,-65.861 31.865,-107.068 6.809,-41.207 20.813,-50.984 30.188,-49.71 9.376,1.275 34.851,12.327 38.239,16.989 3.388,4.663 8.084,8.504 7.228,34.415 -0.855,25.912 -9.341,59.069 -23.798,89.223 -14.457,30.155 -32.771,49.711 -39.48,64.134 -6.708,14.423 -8.067,23.798 -8.067,23.798"
         fill="#92e3a9"
         id="path398" />
      <path
         d="m 259.034,354.324 39.597,-31.295 c 0.184,-0.587 -0.101,-6.424 -0.587,-14.206 -7.9,-3.454 -16.436,-6.457 -21.065,-7.094 -8.218,-1.124 -20.042,6.306 -27.404,36.126 3.467,5.303 6.625,10.802 9.459,16.469 z"
         fill="#92e3a9"
         id="path400" />
      <path
         opacity="0.3"
         d="m 259.034,354.324 39.597,-31.295 c 0.184,-0.587 -0.101,-6.424 -0.587,-14.206 -7.9,-3.454 -16.436,-6.457 -21.065,-7.094 -8.218,-1.124 -20.042,6.306 -27.404,36.126 3.467,5.303 6.625,10.802 9.459,16.469 z"
         fill="#000000"
         id="path402" />
      <path
         d="m 168.15,531.781 c 0,0 27.689,-42.683 46.809,-73.274 19.119,-30.591 25.056,-65.861 31.865,-107.068 6.809,-41.207 20.813,-50.984 30.188,-49.71 9.376,1.275 34.851,12.327 38.239,16.989 3.388,4.663 8.084,8.504 7.228,34.415 -0.855,25.912 -9.341,59.069 -23.798,89.223 -14.457,30.155 -32.771,49.711 -39.48,64.134 -6.708,14.423 -8.067,23.798 -8.067,23.798"
         stroke="#263238"
         stroke-linecap="round"
         stroke-linejoin="round"
         id="path404" />
      <path
         d="m 343.259,370.642 c -2.214,42.868 -28.712,78.004 -41.626,117.735 -4.015,11.878 -6.902,24.108 -8.621,36.528"
         stroke="#263238"
         stroke-linecap="round"
         stroke-linejoin="round"
         id="path406" />
      <path
         d="m 331.788,464.025 c 0,0 -4.663,7.245 -22.944,5.568"
         stroke="#263238"
         stroke-linecap="round"
         stroke-linejoin="round"
         id="path408" />
      <path
         d="m 271.88,268.17 c 0,0 5.032,8.922 0,28.041 -5.031,19.12 -20.393,64.57 -13.584,95.161 6.809,30.591 18.683,36.544 33.542,25.928 14.86,-10.616 24.637,-35.689 28.512,-65.005 3.874,-29.317 -8.923,-31.866 -2.969,-50.147 5.954,-18.28 7.228,-44.611 7.228,-44.611 0,0 -18.28,10.633 -31.446,12.327 -13.165,1.694 -21.283,-1.694 -21.283,-1.694 z"
         fill="#ffffff"
         id="path410" />
      <path
         d="m 322.127,258.895 c -5.4,2.918 -18.733,9.644 -28.997,10.969 -13.166,1.677 -21.25,-1.677 -21.25,-1.677 0,0 5.032,8.922 0,28.041 -3.941,14.826 -14.02,45.484 -15.178,72.754 2.063,-13.669 6.055,-25.995 9.778,-25.995 6.155,0 19.22,11.521 19.22,8.385 0,-3.136 -5.384,-7.698 -7.681,-10.063 -2.298,-2.364 15.379,-17.693 26.834,-35.37 7.034,-11.145 13.201,-22.813 18.448,-34.901 0.269,-2.332 0.47,-4.461 0.638,-6.306 z"
         fill="#92e3a9"
         id="path412" />
      <path
         d="m 274.799,421.275 c 3.723,1.493 7.832,1.04 12.26,-1.09 1.341,-6.138 0.167,-11.925 -2.13,-18.784 -2.919,-8.771 -5.854,10.499 -10.13,19.874 z"
         fill="#92e3a9"
         id="path414" />
      <g
         opacity="0.5"
         id="g420">
        <path
           opacity="0.5"
           d="m 322.127,258.895 c -5.4,2.918 -18.733,9.644 -28.997,10.969 -13.166,1.677 -21.25,-1.677 -21.25,-1.677 0,0 5.032,8.922 0,28.041 -3.941,14.826 -14.02,45.484 -15.178,72.754 2.063,-13.669 6.055,-25.995 9.778,-25.995 6.155,0 19.22,11.521 19.22,8.385 0,-3.136 -5.384,-7.698 -7.681,-10.063 -2.298,-2.364 15.379,-17.693 26.834,-35.37 7.034,-11.145 13.201,-22.813 18.448,-34.901 0.269,-2.332 0.47,-4.461 0.638,-6.306 z"
           fill="#ffffff"
           id="path416" />
        <path
           opacity="0.5"
           d="m 274.799,421.275 c 3.723,1.493 7.832,1.04 12.26,-1.09 1.341,-6.138 0.167,-11.925 -2.13,-18.784 -2.919,-8.771 -5.854,10.499 -10.13,19.874 z"
           fill="#ffffff"
           id="path418" />
      </g>
      <path
         d="m 271.88,268.17 c 0,0 5.032,8.922 0,28.041 -5.031,19.12 -20.393,64.57 -13.584,95.161 6.809,30.591 18.683,36.544 33.542,25.928 14.86,-10.616 24.637,-35.689 28.512,-65.005 3.874,-29.317 -8.923,-31.866 -2.969,-50.147 5.954,-18.28 7.228,-44.611 7.228,-44.611 0,0 -18.28,10.633 -31.446,12.327 -13.165,1.694 -21.283,-1.694 -21.283,-1.694 z"
         stroke="#263238"
         stroke-linecap="round"
         stroke-linejoin="round"
         id="path422" />
      <path
         d="m 337.322,216.766 c 0,0 1.677,-19.556 -8.922,-33.996 -10.6,-14.44 -28.897,-20.394 -49.291,-12.327 -20.394,8.067 -22.524,28.512 -22.088,44.193 0.436,15.681 5.518,43.756 11.036,53.534 5.517,9.777 15.295,21.232 29.752,18.264 14.457,-2.969 30.188,-22.943 33.979,-31.866 2.008,-4.367 3.575,-8.923 4.679,-13.601 0,0 14.021,-8.067 14.44,-18.264 0.419,-10.197 -5.937,-21.233 -13.585,-5.937 z"
         fill="#ffffff"
         id="path424" />
      <path
         d="m 300.442,282.643 c -8.838,2.03 -15.631,-8.838 -8.151,-16.318 7.48,-7.48 8.839,-9.526 10.197,-14.96 1.359,-5.434 -5.434,2.717 -11.555,2.717 -6.122,0 -8.168,-6.792 -8.168,-6.792 0,0 -3.354,-14.29 3.992,-25.006 7.345,-10.717 0,-7.631 -4.663,-12.545 -4.662,-4.914 0,-1.896 6.709,-8.487 6.708,-6.591 -2.046,-15.094 8.167,-21.953 10.214,-6.86 23.782,-2.717 23.782,-2.717 l 0.419,-1.308 c -10.784,-8.738 -25.777,-11.304 -42.146,-4.831 -20.394,8.084 -22.524,28.512 -22.088,44.193 0.436,15.681 5.518,43.756 11.036,53.534 5.518,9.777 15.295,21.232 29.752,18.264 8.989,-1.845 18.448,-10.298 25.291,-18.566 -6.457,5.048 -15.882,13.216 -22.574,14.775 z"
         fill="#92e3a9"
         id="path426" />
      <path
         opacity="0.5"
         d="m 300.442,282.643 c -8.838,2.03 -15.631,-8.838 -8.151,-16.318 7.48,-7.48 8.839,-9.526 10.197,-14.96 1.359,-5.434 -5.434,2.717 -11.555,2.717 -6.122,0 -8.168,-6.792 -8.168,-6.792 0,0 -3.354,-14.29 3.992,-25.006 7.345,-10.717 0,-7.631 -4.663,-12.545 -4.662,-4.914 0,-1.896 6.709,-8.487 6.708,-6.591 -2.046,-15.094 8.167,-21.953 10.214,-6.86 23.782,-2.717 23.782,-2.717 l 0.419,-1.308 c -10.784,-8.738 -25.777,-11.304 -42.146,-4.831 -20.394,8.084 -22.524,28.512 -22.088,44.193 0.436,15.681 5.518,43.756 11.036,53.534 5.518,9.777 15.295,21.232 29.752,18.264 8.989,-1.845 18.448,-10.298 25.291,-18.566 -6.457,5.048 -15.882,13.216 -22.574,14.775 z"
         fill="#ffffff"
         id="path428" />
      <path
         d="m 337.322,216.766 c 0,0 1.677,-19.556 -8.922,-33.996 -10.6,-14.44 -28.897,-20.394 -49.291,-12.327 -20.394,8.067 -22.524,28.512 -22.088,44.193 0.436,15.681 5.518,43.756 11.036,53.534 5.517,9.777 15.295,21.232 29.752,18.264 14.457,-2.969 30.188,-22.943 33.979,-31.866 2.008,-4.367 3.575,-8.923 4.679,-13.601 0,0 14.021,-8.067 14.44,-18.264 0.419,-10.197 -5.937,-21.233 -13.585,-5.937 z"
         stroke="#263238"
         stroke-linecap="round"
         stroke-linejoin="round"
         id="path430" />
      <path
         d="m 283.352,197.21 c 0,0 -1.275,15.732 -6.373,18.7 -5.098,2.969 -18.264,7.229 -23.782,2.969 -5.517,-4.26 -11.471,-18.683 -7.228,-22.088 4.243,-3.404 27.186,-7.648 31.01,-7.648 3.824,0 6.373,3.405 6.373,8.067 z"
         fill="#ffffff"
         id="path432" />
      <path
         d="m 251.822,217.604 c 0.424,0.461 0.884,0.887 1.375,1.275 5.518,4.243 18.683,0 23.782,-2.969 5.098,-2.968 6.373,-18.7 6.373,-18.7 0.008,-1.083 -0.139,-2.161 -0.436,-3.203 -20.679,6.642 -28.293,17.191 -31.094,23.597 z"
         fill="#92e3a9"
         id="path434" />
      <path
         d="m 283.352,197.21 c 0,0 -1.275,15.732 -6.373,18.7 -5.098,2.969 -18.264,7.229 -23.782,2.969 -5.517,-4.26 -11.471,-18.683 -7.228,-22.088 4.243,-3.404 27.186,-7.648 31.01,-7.648 3.824,0 6.373,3.405 6.373,8.067 z"
         stroke="#263238"
         stroke-linecap="round"
         stroke-linejoin="round"
         id="path436" />
      <path
         d="m 298.547,194.963 c 0,0 4.478,15.094 10.063,16.989 5.584,1.896 19.354,3.355 23.882,-1.979 4.528,-5.333 7.396,-20.645 2.549,-23.11 -4.847,-2.466 -28.192,-1.896 -31.865,-1.107 -3.673,0.788 -5.585,4.629 -4.629,9.207 z"
         fill="#ffffff"
         id="path438" />
      <path
         d="m 332.509,209.973 c 3.656,-4.26 6.222,-15.094 4.545,-20.36 -18.751,0.168 -30.474,7.463 -36.025,12.075 1.828,4.311 4.545,9.241 7.597,10.264 5.602,1.862 19.338,3.321 23.883,-1.979 z"
         fill="#92e3a9"
         id="path440" />
      <path
         d="m 298.547,194.963 c 0,0 4.478,15.094 10.063,16.989 5.584,1.896 19.354,3.355 23.882,-1.979 4.528,-5.333 7.396,-20.645 2.549,-23.11 -4.847,-2.466 -28.192,-1.896 -31.865,-1.107 -3.673,0.788 -5.585,4.629 -4.629,9.207 z"
         stroke="#263238"
         stroke-linecap="round"
         stroke-linejoin="round"
         id="path442" />
      <path
         d="m 283.788,193.823 c 1.64,-2.171 4.04,-3.64 6.719,-4.113 2.679,-0.473 5.437,0.086 7.721,1.563"
         stroke="#263238"
         stroke-linecap="round"
         stroke-linejoin="round"
         id="path444" />
      <path
         d="m 290.161,194.879 c 0,0 2.549,2.113 -1.274,6.373 -3.824,4.26 -8.067,5.518 -6.709,8.487 1.359,2.968 7.228,5.031 8.503,6.373"
         stroke="#263238"
         stroke-linecap="round"
         stroke-linejoin="round"
         id="path446" />
      <path
         d="m 319.477,225.671 c 0,0 -0.436,2.13 -10.633,0.436 -10.197,-1.694 -13.165,-6.708 -22.087,-3.823 -8.923,2.884 -11.891,7.647 -14.021,8.486 l -2.13,0.855 c 0,0 8.084,11.052 12.746,18.7 4.662,7.648 11.069,7.648 16.1,4.595 5.032,-3.052 14.441,-18.263 16.151,-21.668 z"
         fill="#263238"
         stroke="#263238"
         stroke-linecap="round"
         stroke-linejoin="round"
         id="path448" />
      <path
         d="m 316.492,228.221 c 0,0 -3.773,2.566 -11.287,1.308 -7.513,-1.258 -9.694,-5.032 -16.268,-2.818 -6.574,2.214 -9.962,3.874 -11.522,4.495 -1.202,0.562 -2.328,1.272 -3.354,2.113 3.145,3.434 5.99,7.132 8.503,11.052 3.354,5.635 11.522,6.91 15.278,4.713 3.757,-2.197 11.17,-11.74 12.428,-14.239 1.258,-2.499 6.222,-6.624 6.222,-6.624 z"
         fill="#ffffff"
         stroke="#263238"
         stroke-linecap="round"
         stroke-linejoin="round"
         id="path450" />
      <path
         d="m 243,291.113 c -1.274,-0.436 -5.954,-14.021 -24.653,-20.394 -18.7,-6.373 -29.317,5.031 -38.574,21.232 -9.258,16.202 -19.539,45.467 -26.835,59.908 -7.295,14.44 -21.198,23.815 -21.685,42.498 -0.486,18.683 8.084,30.188 18.7,29.316 10.616,-0.872 19.119,-12.746 34.834,-34.414 15.715,-21.669 31.01,-59.908 31.01,-59.908"
         fill="#ffffff"
         id="path452" />
      <path
         d="m 243,291.113 c -1.274,-0.436 -5.954,-14.021 -24.653,-20.394 -18.7,-6.373 -29.3,5.031 -38.574,21.232 -4.221,7.707 -8.001,15.647 -11.321,23.782 12.729,-11.22 26.18,-15.916 42.129,-12.494 6.434,1.628 12.389,4.761 17.375,9.14 z"
         fill="#92e3a9"
         id="path454" />
      <path
         opacity="0.5"
         d="m 243,291.113 c -1.274,-0.436 -5.954,-14.021 -24.653,-20.394 -18.7,-6.373 -29.3,5.031 -38.574,21.232 -4.221,7.707 -8.001,15.647 -11.321,23.782 12.729,-11.22 26.18,-15.916 42.129,-12.494 6.434,1.628 12.389,4.761 17.375,9.14 z"
         fill="#ffffff"
         id="path456" />
      <path
         d="m 243,291.113 c -1.274,-0.436 -5.954,-14.021 -24.653,-20.394 -18.7,-6.373 -29.317,5.031 -38.574,21.232 -9.258,16.202 -19.539,45.467 -26.835,59.908 -7.295,14.44 -21.198,23.815 -21.685,42.498 -0.486,18.683 8.084,30.188 18.7,29.316 10.616,-0.872 19.119,-12.746 34.834,-34.414 15.715,-21.669 31.01,-59.908 31.01,-59.908"
         stroke="#263238"
         stroke-linecap="round"
         stroke-linejoin="round"
         id="path458" />
      <path
         d="m 187.085,385.971 c -3.042,-5.399 -6.502,-10.553 -10.348,-15.412 -6.247,-8.129 -14.982,-13.989 -24.872,-16.688 -7.446,13.3 -20.125,22.641 -20.561,40.436 -0.42,18.683 8.083,30.188 18.699,29.316 10.617,-0.872 19.12,-12.746 34.834,-34.415 0.722,-1.006 1.476,-2.113 2.248,-3.237 z"
         fill="#ffffff"
         stroke="#263238"
         stroke-linecap="round"
         stroke-linejoin="round"
         id="path460" />
      <path
         d="m 208.183,100.339 h -72.267 c -2.103,0 -3.807,1.705 -3.807,3.808 V 236.74 c 0,2.103 1.704,3.807 3.807,3.807 h 72.267 c 2.103,0 3.807,-1.704 3.807,-3.807 V 104.147 c 0,-2.103 -1.704,-3.808 -3.807,-3.808 z"
         fill="#92e3a9"
         stroke="#263238"
         stroke-linecap="round"
         stroke-linejoin="round"
         id="path462" />
      <path
         d="m 208.401,176.213 v 10.666"
         stroke="#ffffff"
         stroke-linecap="round"
         stroke-linejoin="round"
         id="path464" />
      <path
         d="m 197.718,103.727 h 6.876 c 1.01,0 1.978,0.401 2.692,1.115 0.714,0.714 1.115,1.683 1.115,2.692 v 61.048"
         stroke="#ffffff"
         stroke-linecap="round"
         stroke-linejoin="round"
         id="path466" />
      <path
         d="m 181.701,103.727 h 7.631"
         stroke="#ffffff"
         stroke-linecap="round"
         stroke-linejoin="round"
         id="path468" />
      <path
         d="m 154.196,115.719 c -0.003,-1.347 -0.406,-2.661 -1.159,-3.778 -0.752,-1.116 -1.819,-1.984 -3.065,-2.493 -1.246,-0.509 -2.616,-0.636 -3.935,-0.365 -1.318,0.27 -2.527,0.927 -3.472,1.886 -0.944,0.959 -1.583,2.177 -1.834,3.5 -0.251,1.322 -0.104,2.69 0.424,3.928 0.527,1.239 1.411,2.293 2.538,3.028 1.128,0.736 2.449,1.119 3.795,1.103 0.889,0 1.77,-0.177 2.591,-0.52 0.82,-0.344 1.564,-0.847 2.188,-1.48 0.625,-0.634 1.117,-1.386 1.448,-2.211 0.331,-0.826 0.495,-1.709 0.481,-2.598 z"
         fill="#263238"
         id="path470" />
      <path
         d="m 138.062,161.102 c 0,0 -15.295,19.538 -26.347,29.316 -11.053,9.778 -3.824,17.258 0,25.341 3.823,8.084 10.616,51.555 12.746,66.851 2.13,15.295 -5.518,64.586 -7.648,92.628 -2.13,28.041 15.715,52.678 24.218,56.921 8.503,4.244 14.021,-1.677 23.798,-21.232 9.778,-19.555 1.275,-41.224 -4.26,-65.408 -5.534,-24.184 -15.714,-63.731 -15.714,-63.731 0,0 8.922,-2.549 9.777,-11.035 0.856,-8.487 -2.549,-21.669 -2.549,-21.669 0,0 25.912,0.419 36.109,-1.275 10.197,-1.693 21.232,-4.259 13.584,-5.953 -7.647,-1.694 -14.44,0 -29.735,-0.856 -9.669,-0.717 -19.02,-3.767 -27.253,-8.889 7.202,-3.395 15.019,-5.289 22.976,-5.568 11.371,-0.519 23.832,2.449 30.625,1.007 6.39,-1.342 10.968,-3.505 8.385,-6.055 -2.582,-2.549 -7.262,-1.677 -16.771,-3.354 -5.635,-0.956 -14.507,-6.021 -22.893,-6.054 -7.394,0.101 -14.736,1.259 -21.802,3.438 -1.678,0 10.75,-11.12 15.848,-12.394 5.099,-1.275 22.39,5.165 29.619,5.165 7.228,0 15.714,-2.549 16.134,-5.517 0.419,-2.969 2.985,-4.26 -6.793,-4.68 -9.778,-0.419 -24.218,-5.953 -32.704,-8.922 -8.486,-2.969 -14.457,-0.419 -19.555,2.13 -5.099,2.549 -17.845,7.212 -17.845,7.212 l 16.302,-21.166 c 0,0 17.694,7.581 27.89,7.145 10.197,-0.436 22.524,-7.648 18.264,-9.761 -4.259,-2.113 -13.584,-0.855 -29.316,-5.535 -15.731,-4.679 -19.153,-12.779 -25.09,-8.1 z"
         fill="#ffffff"
         id="path472" />
      <path
         d="m 111.715,215.759 c 3.823,8.067 10.616,51.555 12.746,66.851 2.13,15.295 -5.518,64.586 -7.648,92.628 -2.13,28.041 15.715,52.678 24.218,56.922 8.117,4.058 13.534,-1.225 22.524,-18.751 -1.107,1.225 -2.415,2.583 -3.975,4.143 -9.224,9.241 -16.151,10.767 -23.061,-10.767 -6.909,-21.535 -3.086,-93.048 -4.612,-114.582 -0.886,-13.839 -0.628,-27.729 0.772,-41.526 0,0 -0.57,-14.356 -11.539,-30.758 -10.968,-16.403 -9.425,-29.501 -9.425,-29.501 -11.053,9.778 -3.824,17.258 0,25.341 z"
         fill="#92e3a9"
         id="path474" />
      <path
         opacity="0.5"
         d="m 111.715,215.759 c 3.823,8.067 10.616,51.555 12.746,66.851 2.13,15.295 -5.518,64.586 -7.648,92.628 -2.13,28.041 15.715,52.678 24.218,56.922 8.117,4.058 13.534,-1.225 22.524,-18.751 -1.107,1.225 -2.415,2.583 -3.975,4.143 -9.224,9.241 -16.151,10.767 -23.061,-10.767 -6.909,-21.535 -3.086,-93.048 -4.612,-114.582 -0.886,-13.839 -0.628,-27.729 0.772,-41.526 0,0 -0.57,-14.356 -11.539,-30.758 -10.968,-16.403 -9.425,-29.501 -9.425,-29.501 -11.053,9.778 -3.824,17.258 0,25.341 z"
         fill="#ffffff"
         id="path476" />
      <path
         d="m 138.062,161.102 c 0,0 -15.295,19.538 -26.347,29.316 -11.053,9.778 -3.824,17.258 0,25.341 3.823,8.084 10.616,51.555 12.746,66.851 2.13,15.295 -5.518,64.586 -7.648,92.628 -2.13,28.041 15.715,52.678 24.218,56.921 8.503,4.244 14.021,-1.677 23.798,-21.232 9.778,-19.555 1.275,-41.224 -4.26,-65.408 -5.534,-24.184 -15.714,-63.731 -15.714,-63.731 0,0 8.922,-2.549 9.777,-11.035 0.856,-8.487 -2.549,-21.669 -2.549,-21.669 0,0 25.912,0.419 36.109,-1.275 10.197,-1.693 21.232,-4.259 13.584,-5.953 -7.647,-1.694 -14.44,0 -29.735,-0.856 -9.669,-0.717 -19.02,-3.767 -27.253,-8.889 7.202,-3.395 15.019,-5.289 22.976,-5.568 11.371,-0.519 23.832,2.449 30.625,1.007 6.39,-1.342 10.968,-3.505 8.385,-6.055 -2.582,-2.549 -7.262,-1.677 -16.771,-3.354 -5.635,-0.956 -14.507,-6.021 -22.893,-6.054 -7.394,0.101 -14.736,1.259 -21.802,3.438 -1.678,0 10.75,-11.12 15.848,-12.394 5.099,-1.275 22.39,5.165 29.619,5.165 7.228,0 15.714,-2.549 16.134,-5.517 0.419,-2.969 2.985,-4.26 -6.793,-4.68 -9.778,-0.419 -24.218,-5.953 -32.704,-8.922 -8.486,-2.969 -14.457,-0.419 -19.555,2.13 -5.099,2.549 -17.845,7.212 -17.845,7.212 l 16.302,-21.166 c 0,0 17.694,7.581 27.89,7.145 10.197,-0.436 22.524,-7.648 18.264,-9.761 -4.259,-2.113 -13.584,-0.855 -29.316,-5.535 -15.731,-4.679 -19.153,-12.779 -25.09,-8.1 z"
         stroke="#263238"
         stroke-linecap="round"
         stroke-linejoin="round"
         id="path478" />
      <path
         d="M 152.083,249.051 H 140.612"
         stroke="#263238"
         stroke-linecap="round"
         stroke-linejoin="round"
         id="path480" />
    </g>
  </g>
</svg>
